<svg width="229" height="67" viewBox="0 0 229 67" fill="none" xmlns="http://www.w3.org/2000/svg">
<path d="M18.6697 17.1954H0.000488281V0.132324H57.8206V17.1954H39.1661V66.7197H18.6697V17.1954Z" fill="white"/>
<path d="M61.0179 0.132891H117.143V17.196H81.529V25.4918H117.143V41.3466H81.529V49.6424H117.158V66.7055H61.0179V0.118164V0.132891Z" fill="white"/>
<path d="M120.606 0.132324H154.276C176.467 0.132324 184.306 16.5471 184.306 33.3303C184.306 53.7677 173.49 66.7197 150.268 66.7197H120.606V0.132324ZM141.118 49.6566H149.148C161.923 49.6566 163.795 39.2979 163.795 33.0503C163.795 28.8655 162.483 17.2102 147.645 17.2102H141.118V49.6713V49.6566Z" fill="white"/>
<path d="M213.79 41.0517L207.528 30.6782L201.428 41.0517H186.398L200.661 20.069L186.914 0H201.958L207.528 9.91665L213.26 0H228.289L214.557 20.069L228.82 41.0517H213.79Z" fill="white"/>
</svg>
